<?xml version="1.0" encoding="UTF-8"?>
<svg version="1.1" xmlns="http://www.w3.org/2000/svg" width="243" height="351">
<path d="M0 0 C80.19 0 160.38 0 243 0 C243 31.35 243 62.7 243 95 C225.18 95 207.36 95 189 95 C189 148.13 189 201.26 189 256 C206.82 256 224.64 256 243 256 C243 287.35 243 318.7 243 351 C162.81 351 82.62 351 0 351 C0 319.65 0 288.3 0 256 C17.49 256 34.98 256 53 256 C53 202.87 53 149.74 53 95 C35.51 95 18.02 95 0 95 C0 63.65 0 32.3 0 0 Z " fill="#FD5E05" transform="translate(0,0)"/>
<path d="M0 0 C80.19 0 160.38 0 243 0 C243 31.35 243 62.7 243 95 C225.18 95 207.36 95 189 95 C189 148.13 189 201.26 189 256 C206.82 256 224.64 256 243 256 C243 287.35 243 318.7 243 351 C162.81 351 82.62 351 0 351 C0 319.65 0 288.3 0 256 C17.49 256 34.98 256 53 256 C53 202.87 53 149.74 53 95 C35.51 95 18.02 95 0 95 C0 63.65 0 32.3 0 0 Z M13 13 C13 35.77 13 58.54 13 82 C27.91326201 82.17038386 27.91326201 82.17038386 42.8269043 82.29785156 C44.70103407 82.3272249 46.57514187 82.35805134 48.44921875 82.390625 C49.90068298 82.39231689 49.90068298 82.39231689 51.38146973 82.39404297 C55.61870384 82.48402178 58.30268453 82.60345758 62.03442383 84.72558594 C65.84861028 89.1390701 66.2516883 93.17611031 66.26742554 98.89413452 C66.27195665 99.57542093 66.27648776 100.25670734 66.28115618 100.95863879 C66.29378623 103.23470243 66.29218075 105.51052635 66.29052734 107.78662109 C66.29651345 109.42130337 66.30331919 111.05598283 66.31088257 112.69065857 C66.32854084 117.12665657 66.33323786 121.56257741 66.33451414 125.99860716 C66.33593633 128.77115016 66.34020719 131.54367357 66.34550858 134.3162117 C66.36400785 143.99174494 66.37217926 153.6672231 66.37060547 163.34277344 C66.3694039 172.3570213 66.39050955 181.37102979 66.4220928 190.38521707 C66.4482562 198.12889906 66.45897275 205.87250286 66.45769465 213.6162287 C66.45718506 218.23923702 66.46286659 222.86203256 66.48405075 227.4849968 C66.5034344 231.83368888 66.50355686 236.18196521 66.48901749 240.53067207 C66.48692848 242.12417395 66.49163581 243.71770185 66.5037384 245.31115913 C66.61197065 260.55165669 66.61197065 260.55165669 62 266 C59.1910718 268.02800093 56.83304719 268.26124078 53.41503906 268.31884766 C52.50189941 268.33890869 51.58875977 268.35896973 50.64794922 268.37963867 C49.69678223 268.39099854 48.74561523 268.4023584 47.765625 268.4140625 C46.88503418 268.43170654 46.00444336 268.44935059 45.09716797 268.4675293 C41.81496271 268.53048575 38.53245437 268.57674879 35.25 268.625 C27.9075 268.74875 20.565 268.8725 13 269 C13 291.44 13 313.88 13 337 C84.28 337 155.56 337 229 337 C229 314.56 229 292.12 229 269 C214.74495379 268.79010208 214.74495379 268.79010208 200.48950195 268.61206055 C198.69740728 268.57976415 196.90533156 268.54638951 195.11328125 268.51171875 C194.18882202 268.50547485 193.26436279 268.49923096 192.31188965 268.49279785 C187.40433332 268.38318004 183.97536627 268.20277379 180 265 C176.19454178 260.65090489 175.87277868 257.04358798 175.85282898 251.38433838 C175.84915229 250.70884437 175.8454756 250.03335037 175.8416875 249.33738685 C175.83065538 247.06899242 175.82680764 244.8006438 175.82299805 242.53222656 C175.81673304 240.90769302 175.81008621 239.28316091 175.80308533 237.65863037 C175.78204712 232.31930539 175.77168325 226.97998014 175.76171875 221.640625 C175.75767112 219.80232478 175.7535542 217.96402471 175.74936867 216.12572479 C175.73031761 207.48930902 175.71608634 198.85290179 175.7077567 190.21646905 C175.69798384 180.24831959 175.67166271 170.28039217 175.63125581 160.31232095 C175.6010931 152.60690505 175.58628768 144.9015528 175.58297569 137.19607902 C175.58062538 132.59426509 175.57166758 127.99268839 175.54651451 123.39093781 C175.52322601 119.06034732 175.51900361 114.73015013 175.52927589 110.39951324 C175.52977118 108.81245617 175.5234529 107.22537969 175.50971985 105.63838196 C175.38572257 90.45643355 175.38572257 90.45643355 180 85 C182.8089282 82.97199907 185.16695281 82.73875922 188.58496094 82.68115234 C189.49810059 82.66109131 190.41124023 82.64103027 191.35205078 82.62036133 C192.30321777 82.60900146 193.25438477 82.5976416 194.234375 82.5859375 C195.11496582 82.56829346 195.99555664 82.55064941 196.90283203 82.5324707 C200.18503729 82.46951425 203.46754563 82.42325121 206.75 82.375 C214.0925 82.25125 221.435 82.1275 229 82 C229 59.23 229 36.46 229 13 C157.72 13 86.44 13 13 13 Z " fill="#F3F4F6" transform="translate(0,0)"/>
</svg>
